<svg width="155" height="40" viewBox="0 0 155 40" fill="none" xmlns="http://www.w3.org/2000/svg">
<mask id="path-1-inside-1_762_963" fill="white">
<path d="M0 0H155V40H0V0Z"/>
</mask>
<path d="M154 0V40H156V0H154Z" fill="currentColor" mask="url(#path-1-inside-1_762_963)"/>
<g clip-path="url(#clip0_762_963)">
<path d="M21.0842 32.368C18.2629 32.368 15.7789 31.816 13.6322 30.712C11.5162 29.608 9.87556 28.1053 8.71022 26.204C7.54489 24.272 6.96222 22.0793 6.96222 19.626C6.96222 17.142 7.52956 14.9493 8.66422 13.048C9.82956 11.116 11.4089 9.61333 13.4022 8.54C15.3956 7.436 17.6496 6.884 20.1642 6.884C22.5869 6.884 24.7642 7.40533 26.6962 8.448C28.6589 9.46 30.2076 10.932 31.3422 12.864C32.4769 14.7653 33.0442 17.05 33.0442 19.718C33.0442 19.994 33.0289 20.316 32.9982 20.684C32.9676 21.0213 32.9369 21.3433 32.9062 21.65H12.8042V17.464H29.1342L26.3742 18.706C26.3742 17.418 26.1136 16.2987 25.5922 15.348C25.0709 14.3973 24.3502 13.6613 23.4302 13.14C22.5102 12.588 21.4369 12.312 20.2102 12.312C18.9836 12.312 17.8949 12.588 16.9442 13.14C16.0242 13.6613 15.3036 14.4127 14.7822 15.394C14.2609 16.3447 14.0002 17.4793 14.0002 18.798V19.902C14.0002 21.2513 14.2916 22.4473 14.8742 23.49C15.4876 24.502 16.3309 25.284 17.4042 25.836C18.5082 26.3573 19.7962 26.618 21.2682 26.618C22.5869 26.618 23.7369 26.4187 24.7182 26.02C25.7302 25.6213 26.6502 25.0233 27.4782 24.226L31.2962 28.366C30.1616 29.654 28.7356 30.6507 27.0182 31.356C25.3009 32.0307 23.3229 32.368 21.0842 32.368Z" fill="currentColor"/>
<path d="M38 20C38 10.0589 29.9411 2 20 2C10.0589 2 2 10.0589 2 20C2 29.9411 10.0589 38 20 38C29.9411 38 38 29.9411 38 20Z" stroke="#1E252C" stroke-width="4" stroke-linejoin="round"/>
</g>
<path d="M54.912 29.788C53.952 29.788 53.096 29.636 52.344 29.332C51.592 29.012 50.952 28.572 50.424 28.012C49.912 27.436 49.52 26.74 49.248 25.924C48.992 25.108 48.864 24.196 48.864 23.188C48.864 22.196 48.992 21.3 49.248 20.5C49.504 19.684 49.88 18.988 50.376 18.412C50.888 17.836 51.512 17.396 52.248 17.092C52.984 16.772 53.824 16.612 54.768 16.612C55.808 16.612 56.696 16.788 57.432 17.14C58.184 17.492 58.792 17.964 59.256 18.556C59.736 19.148 60.08 19.836 60.288 20.62C60.512 21.388 60.624 22.196 60.624 23.044V24.1H52.536V24.292C52.536 25.124 52.76 25.788 53.208 26.284C53.656 26.764 54.36 27.004 55.32 27.004C56.056 27.004 56.656 26.86 57.12 26.572C57.584 26.268 58.016 25.908 58.416 25.492L60.192 27.7C59.632 28.356 58.896 28.868 57.984 29.236C57.088 29.604 56.064 29.788 54.912 29.788ZM54.84 19.228C54.12 19.228 53.552 19.468 53.136 19.948C52.736 20.412 52.536 21.036 52.536 21.82V22.012H56.952V21.796C56.952 21.028 56.776 20.412 56.424 19.948C56.088 19.468 55.56 19.228 54.84 19.228ZM70.8606 27.388H70.7406C70.6446 27.724 70.4926 28.044 70.2846 28.348C70.0766 28.636 69.8206 28.892 69.5166 29.116C69.2286 29.324 68.8926 29.484 68.5086 29.596C68.1406 29.724 67.7566 29.788 67.3566 29.788C65.7566 29.788 64.5486 29.228 63.7326 28.108C62.9166 26.972 62.5086 25.332 62.5086 23.188C62.5086 21.044 62.9166 19.412 63.7326 18.292C64.5486 17.172 65.7566 16.612 67.3566 16.612C68.1726 16.612 68.8926 16.836 69.5166 17.284C70.1566 17.732 70.5646 18.308 70.7406 19.012H70.8606V11.74H74.4126V29.5H70.8606V27.388ZM68.5326 26.908C69.2046 26.908 69.7566 26.748 70.1886 26.428C70.6366 26.092 70.8606 25.636 70.8606 25.06V21.34C70.8606 20.764 70.6366 20.316 70.1886 19.996C69.7566 19.66 69.2046 19.492 68.5326 19.492C67.8606 19.492 67.3006 19.732 66.8526 20.212C66.4206 20.676 66.2046 21.308 66.2046 22.108V24.292C66.2046 25.092 66.4206 25.732 66.8526 26.212C67.3006 26.676 67.8606 26.908 68.5326 26.908ZM79.5101 15.556C78.7901 15.556 78.2621 15.396 77.9261 15.076C77.6061 14.74 77.4461 14.316 77.4461 13.804V13.276C77.4461 12.764 77.6061 12.348 77.9261 12.028C78.2621 11.692 78.7901 11.524 79.5101 11.524C80.2301 11.524 80.7501 11.692 81.0701 12.028C81.4061 12.348 81.5741 12.764 81.5741 13.276V13.804C81.5741 14.316 81.4061 14.74 81.0701 15.076C80.7501 15.396 80.2301 15.556 79.5101 15.556ZM77.7341 16.9H81.2861V29.5H77.7341V16.9ZM84.6013 29.5V16.9H88.1533V19.636H88.2733C88.3373 19.284 88.4493 18.948 88.6093 18.628C88.7693 18.292 88.9773 17.996 89.2333 17.74C89.5053 17.484 89.8253 17.284 90.1933 17.14C90.5613 16.98 90.9933 16.9 91.4893 16.9H92.1133V20.212H91.2253C90.1853 20.212 89.4093 20.348 88.8973 20.62C88.4013 20.892 88.1533 21.396 88.1533 22.132V29.5H84.6013ZM94.3044 16.9H97.8564V30.844C97.8564 31.964 97.5764 32.82 97.0164 33.412C96.4564 34.004 95.5524 34.3 94.3044 34.3H92.4324V31.54H94.3044V16.9ZM96.0804 15.556C95.3604 15.556 94.8324 15.396 94.4964 15.076C94.1764 14.74 94.0164 14.316 94.0164 13.804V13.276C94.0164 12.764 94.1764 12.348 94.4964 12.028C94.8324 11.692 95.3604 11.524 96.0804 11.524C96.8004 11.524 97.3204 11.692 97.6404 12.028C97.9764 12.348 98.1444 12.764 98.1444 13.276V13.804C98.1444 14.316 97.9764 14.74 97.6404 15.076C97.3204 15.396 96.8004 15.556 96.0804 15.556ZM108.612 27.388H108.492C108.38 27.708 108.228 28.012 108.036 28.3C107.86 28.588 107.628 28.844 107.34 29.068C107.052 29.292 106.708 29.468 106.308 29.596C105.924 29.724 105.476 29.788 104.964 29.788C103.668 29.788 102.684 29.364 102.012 28.516C101.356 27.652 101.028 26.42 101.028 24.82V16.9H104.58V24.508C104.58 25.276 104.716 25.868 104.988 26.284C105.26 26.7 105.724 26.908 106.38 26.908C106.652 26.908 106.924 26.868 107.196 26.788C107.468 26.708 107.708 26.596 107.916 26.452C108.124 26.292 108.292 26.1 108.42 25.876C108.548 25.652 108.612 25.388 108.612 25.084V16.9H112.164V29.5H108.612V27.388ZM117.533 29.764C116.813 29.764 116.277 29.588 115.925 29.236C115.589 28.868 115.421 28.404 115.421 27.844V27.364C115.421 26.804 115.589 26.348 115.925 25.996C116.277 25.628 116.813 25.444 117.533 25.444C118.253 25.444 118.781 25.628 119.117 25.996C119.469 26.348 119.645 26.804 119.645 27.364V27.844C119.645 28.404 119.469 28.868 119.117 29.236C118.781 29.588 118.253 29.764 117.533 29.764ZM127.635 29.788C126.691 29.788 125.851 29.636 125.115 29.332C124.379 29.012 123.763 28.572 123.267 28.012C122.771 27.436 122.395 26.74 122.139 25.924C121.883 25.108 121.755 24.196 121.755 23.188C121.755 22.18 121.883 21.276 122.139 20.476C122.395 19.66 122.771 18.964 123.267 18.388C123.763 17.812 124.379 17.372 125.115 17.068C125.851 16.764 126.691 16.612 127.635 16.612C128.915 16.612 129.979 16.9 130.827 17.476C131.691 18.052 132.307 18.86 132.675 19.9L129.795 21.148C129.683 20.668 129.451 20.26 129.099 19.924C128.747 19.588 128.259 19.42 127.635 19.42C126.915 19.42 126.371 19.66 126.003 20.14C125.635 20.604 125.451 21.236 125.451 22.036V24.388C125.451 25.188 125.635 25.82 126.003 26.284C126.371 26.748 126.915 26.98 127.635 26.98C128.275 26.98 128.779 26.812 129.147 26.476C129.531 26.124 129.811 25.668 129.987 25.108L132.747 26.308C132.331 27.508 131.683 28.388 130.803 28.948C129.939 29.508 128.883 29.788 127.635 29.788ZM139.94 29.788C139.012 29.788 138.18 29.636 137.444 29.332C136.724 29.028 136.108 28.588 135.596 28.012C135.1 27.436 134.716 26.74 134.444 25.924C134.172 25.108 134.036 24.196 134.036 23.188C134.036 22.18 134.172 21.268 134.444 20.452C134.716 19.636 135.1 18.948 135.596 18.388C136.108 17.812 136.724 17.372 137.444 17.068C138.18 16.764 139.012 16.612 139.94 16.612C140.868 16.612 141.692 16.764 142.412 17.068C143.148 17.372 143.764 17.812 144.26 18.388C144.772 18.948 145.164 19.636 145.436 20.452C145.708 21.268 145.844 22.18 145.844 23.188C145.844 24.196 145.708 25.108 145.436 25.924C145.164 26.74 144.772 27.436 144.26 28.012C143.764 28.588 143.148 29.028 142.412 29.332C141.692 29.636 140.868 29.788 139.94 29.788ZM139.94 26.98C140.644 26.98 141.188 26.764 141.572 26.332C141.956 25.9 142.148 25.284 142.148 24.484V21.916C142.148 21.116 141.956 20.5 141.572 20.068C141.188 19.636 140.644 19.42 139.94 19.42C139.236 19.42 138.692 19.636 138.308 20.068C137.924 20.5 137.732 21.116 137.732 21.916V24.484C137.732 25.284 137.924 25.9 138.308 26.332C138.692 26.764 139.236 26.98 139.94 26.98Z" fill="currentColor"/>
<defs>
<clipPath id="clip0_762_963">
<rect width="40" height="40" fill="none"/>
</clipPath>
</defs>
</svg>
